<svg width="18" height="14" viewBox="0 0 18 14" fill="none" xmlns="http://www.w3.org/2000/svg">
<path fill-rule="evenodd" clip-rule="evenodd" d="M1.38885 3.96013C1.96187 3.56598 2.71939 3.56909 3.28916 3.96793L5.73343 5.67891L7.45259 1.381C7.7057 0.748231 8.31855 0.333313 9.00006 0.333313C9.68156 0.333313 10.2944 0.748231 10.5475 1.381L12.2667 5.67891L14.711 3.96793C15.2807 3.56909 16.0382 3.56598 16.6113 3.96013C17.1843 4.35428 17.4523 5.06282 17.2836 5.73754L15.617 12.4042C15.4315 13.1462 14.7648 13.6666 14.0001 13.6666H4.00006C3.23528 13.6666 2.56864 13.1462 2.38315 12.4042L0.716484 5.73754C0.547804 5.06282 0.81583 4.35428 1.38885 3.96013ZM14.0001 12H4.00006L2.33339 5.33331L6.06946 7.94856C6.28945 8.10256 6.59553 8.01129 6.69526 7.76196L9.00006 1.99998L11.3048 7.76196C11.4046 8.01129 11.7107 8.10256 11.9307 7.94856L15.6667 5.33331L14.0001 12Z" fill="#C40533"/>
</svg>
